<svg width="111" height="28" viewBox="0 0 111 28" fill="none" xmlns="http://www.w3.org/2000/svg">
<path d="M8.87856 27.9998C6.72183 27.9998 4.84666 27.484 3.25308 26.4524C1.65949 25.4207 0.575129 24.031 0 22.2833L3.95402 20.3899C4.45725 21.458 5.14022 22.2955 6.00291 22.9023C6.86561 23.5092 7.82416 23.8126 8.87856 23.8126C9.6454 23.8126 10.2325 23.6548 10.6399 23.3392C11.0473 23.0237 11.251 22.5867 11.251 22.0284C11.251 21.7372 11.1791 21.4883 11.0353 21.282C10.8915 21.0757 10.6758 20.8876 10.3883 20.7176C10.1007 20.5477 9.74126 20.4021 9.30991 20.2807L5.96697 19.334C4.3614 18.8728 3.12727 18.1264 2.26457 17.0948C1.40188 16.0631 0.970531 14.8434 0.970531 13.4355C0.970531 12.1975 1.28206 11.1173 1.90512 10.1949C2.52817 9.27248 3.40285 8.55033 4.52914 8.02844C5.65544 7.50655 6.94948 7.24561 8.41127 7.24561C10.3284 7.24561 12.0118 7.70074 13.4616 8.61102C14.9114 9.52129 15.9359 10.8017 16.535 12.4524L12.545 14.3457C12.2574 13.5204 11.7362 12.859 10.9814 12.3613C10.2265 11.8637 9.36982 11.6149 8.41127 11.6149C7.71632 11.6149 7.17115 11.7606 6.77574 12.0518C6.38034 12.3431 6.18264 12.7437 6.18264 13.2534C6.18264 13.5204 6.25453 13.7632 6.39832 13.9816C6.5421 14.2001 6.77574 14.3943 7.09925 14.5642C7.42277 14.7341 7.82416 14.8919 8.30343 15.0375L11.4307 15.9842C13.0602 16.4697 14.3063 17.204 15.169 18.1871C16.0317 19.1702 16.4631 20.3778 16.4631 21.81C16.4631 23.0479 16.1456 24.1281 15.5105 25.0505C14.8755 25.973 13.9948 26.6951 12.8685 27.217C11.7422 27.7389 10.4122 27.9998 8.87856 27.9998Z" fill="#13183F"/>
<path d="M19.6982 27.5631V0H25.0901V17.6593L23.0771 17.0039L31.74 7.6827H38.39L31.2727 15.6931L38.354 27.5631H32.2433L26.3122 17.4772L29.4395 16.6762L23.4366 23.303L25.0901 20.1352V27.5631H19.6982Z" fill="#13183F"/>
<path fill-rule="evenodd" clip-rule="evenodd" d="M40.7627 0.436523V5.89816H46.1545V0.436523H40.7627ZM40.7627 7.68241V27.5628H46.1545V7.68241H40.7627Z" fill="#13183F"/>
<path d="M50.1084 27.5631V0H55.5002V27.5631H50.1084Z" fill="#13183F"/>
<path d="M59.4541 27.5631V0H64.8459V27.5631H59.4541Z" fill="#13183F"/>
<path d="M78.2533 28.0003C76.1684 28.0003 74.3592 27.533 72.8255 26.5985C71.2918 25.664 70.1056 24.4078 69.2669 22.83C68.4282 21.2522 68.0088 19.5044 68.0088 17.5868C68.0088 15.5963 68.4461 13.8243 69.3208 12.2708C70.1955 10.7173 71.3757 9.49143 72.8614 8.5933C74.3472 7.69516 76.0247 7.24609 77.8938 7.24609C79.4515 7.24609 80.8294 7.4949 82.0276 7.99252C83.2258 8.49013 84.2382 9.18801 85.065 10.0861C85.8917 10.9843 86.5208 12.022 86.9521 13.1993C87.3835 14.3766 87.5991 15.657 87.5991 17.0406C87.5991 17.429 87.5812 17.8113 87.5452 18.1876C87.5093 18.5638 87.4434 18.8855 87.3475 19.1525H72.6458V15.1473H84.2921L81.74 17.0406C81.9796 15.9969 81.9677 15.0684 81.7041 14.2552C81.4405 13.442 80.9792 12.7988 80.3202 12.3254C79.6612 11.8521 78.8524 11.6154 77.8938 11.6154C76.9592 11.6154 76.1565 11.846 75.4855 12.3072C74.8145 12.7684 74.3113 13.4481 73.9758 14.3462C73.6403 15.2444 73.5085 16.3367 73.5804 17.6232C73.4845 18.7398 73.6163 19.7229 73.9758 20.5725C74.3352 21.4221 74.8864 22.0835 75.6293 22.5569C76.3721 23.0302 77.2708 23.2669 78.3252 23.2669C79.2837 23.2669 80.1045 23.0727 80.7874 22.6843C81.4704 22.2959 82.0036 21.7619 82.387 21.0822L86.7005 23.1577C86.3171 24.1286 85.712 24.9782 84.8852 25.7064C84.0585 26.4347 83.082 26.999 81.9557 27.3995C80.8294 27.8001 79.5953 28.0003 78.2533 28.0003Z" fill="#13183F"/>
<path fill-rule="evenodd" clip-rule="evenodd" d="M94.8603 26.6164C96.37 27.5388 98.0834 28 100.001 28C101.342 28 102.589 27.7512 103.739 27.2536C104.623 26.8709 105.366 26.3482 105.967 25.6856V27.5631H111V0H105.608V9.35192C105.094 8.83528 104.489 8.40631 103.793 8.06502C102.678 7.51886 101.402 7.24577 99.9646 7.24577C98.0954 7.24577 96.4059 7.70698 94.8962 8.62939C93.3865 9.5518 92.1883 10.7958 91.3017 12.3615C90.415 13.9272 89.9717 15.681 89.9717 17.6229C89.9717 19.5405 90.409 21.2883 91.2837 22.8661C92.1584 24.4439 93.3506 25.694 94.8603 26.6164ZM103.236 22.3926C102.493 22.8538 101.63 23.0844 100.648 23.0844C99.6651 23.0844 98.7845 22.8538 98.0057 22.3926C97.2268 21.9314 96.6218 21.2881 96.1904 20.4628C95.7591 19.6375 95.5434 18.6908 95.5434 17.6228C95.5434 16.5547 95.7591 15.6141 96.1904 14.8009C96.6218 13.9877 97.2268 13.3445 98.0057 12.8711C98.7845 12.3978 99.6651 12.1611 100.648 12.1611C101.63 12.1611 102.493 12.3917 103.236 12.8529C103.979 13.3141 104.56 13.9574 104.979 14.7827C105.398 15.608 105.608 16.5547 105.608 17.6228C105.608 18.6908 105.398 19.6375 104.979 20.4628C104.56 21.2881 103.979 21.9314 103.236 22.3926Z" fill="#13183F"/>
</svg>
